<?xml version="1.0" encoding="utf-8"?>
<!-- Generator: Adobe Illustrator 21.0.0, SVG Export Plug-In . SVG Version: 6.00 Build 0)  -->
<svg version="1.1" id="Capa_1" xmlns="http://www.w3.org/2000/svg" xmlns:xlink="http://www.w3.org/1999/xlink" x="0px" y="0px"
	 viewBox="0 0 18 18" style="enable-background:new 0 0 18 18;" xml:space="preserve">
<style type="text/css">
	.st0{fill:#C6D5D5;}
</style>
<g>
	<g>
		<path class="st0" d="M9,3.6L9,3.6C6,3.6,3.6,6,3.6,9c0,1.2,0.4,2.3,1,3.2l-0.7,2L6,13.5c0.9,0.6,1.9,0.9,3,0.9
			c3,0,5.4-2.4,5.4-5.4S12,3.6,9,3.6z M12.2,11.2c-0.1,0.4-0.6,0.7-1.1,0.8c-0.3,0.1-0.7,0.1-1.9-0.4c-1.6-0.7-2.6-2.3-2.7-2.4
			C6.4,9.1,5.9,8.3,5.9,7.6s0.4-1.2,0.6-1.3C6.5,6.1,6.8,6.1,7,6.1c0.1,0,0.1,0,0.2,0c0.2,0,0.2,0,0.3,0.3C7.6,6.6,7.9,7.4,8,7.5
			c0,0.1,0.1,0.2,0,0.3C7.9,7.9,7.9,8,7.8,8C7.7,8.1,7.7,8.2,7.6,8.3C7.5,8.4,7.4,8.5,7.5,8.6c0.1,0.2,0.4,0.7,0.9,1.1
			c0.6,0.5,1.1,0.7,1.3,0.8c0.1,0.1,0.3,0,0.4-0.1c0.1-0.1,0.3-0.3,0.4-0.6c0.1-0.2,0.2-0.2,0.4-0.1c0.1,0.1,0.9,0.4,1.1,0.5
			c0.2,0.1,0.3,0.1,0.3,0.2C12.3,10.5,12.3,10.9,12.2,11.2z"/>
	</g>
</g>
</svg>
